<svg width="47" height="29" viewBox="0 0 47 29" fill="none" xmlns="http://www.w3.org/2000/svg">
<path d="M13.2461 10.1749C13.2461 10.7514 13.3086 11.2189 13.418 11.5616C13.5431 11.9044 13.6994 12.2784 13.9182 12.6835C13.9964 12.8081 14.0277 12.9328 14.0277 13.0419C14.0277 13.1977 13.9339 13.3535 13.7307 13.5093L12.7458 14.1638C12.6052 14.2573 12.4645 14.304 12.3394 14.304C12.1831 14.304 12.0268 14.2261 11.8705 14.0859C11.6516 13.8521 11.464 13.6028 11.3077 13.3535C11.1514 13.0886 10.9951 12.7926 10.8232 12.4342C9.60385 13.8677 8.07196 14.5845 6.22744 14.5845C4.91436 14.5845 3.86704 14.2105 3.10108 13.4626C2.33513 12.7147 1.94434 11.7174 1.94434 10.4709C1.94434 9.14648 2.41329 8.0713 3.36682 7.26109C4.32036 6.45082 5.58652 6.04569 7.19661 6.04569C7.72804 6.04569 8.2752 6.09244 8.85355 6.17034C9.43194 6.24828 10.0259 6.37293 10.6512 6.51315V5.37569C10.6512 4.19148 10.4011 3.36565 9.91653 2.88262C9.41627 2.39958 8.57216 2.16586 7.36856 2.16586C6.82146 2.16586 6.25868 2.22818 5.68033 2.36842C5.10194 2.50866 4.5392 2.68006 3.99209 2.8982C3.74198 3.00727 3.5544 3.0696 3.44498 3.10076C3.33556 3.13193 3.2574 3.1475 3.19487 3.1475C2.97603 3.1475 2.86661 2.99169 2.86661 2.66447V1.90097C2.86661 1.65166 2.89787 1.46468 2.97603 1.35561C3.05419 1.24654 3.19487 1.13746 3.41372 1.02839C3.96083 0.747923 4.61736 0.514195 5.38333 0.327216C6.14925 0.124654 6.96212 0.0311634 7.82186 0.0311634C9.68204 0.0311634 11.042 0.451869 11.9174 1.29328C12.7771 2.1347 13.2148 3.41239 13.2148 5.12639V10.1749H13.2461ZM6.8996 12.5433C7.41542 12.5433 7.94691 12.4498 8.50963 12.2628C9.07241 12.0758 9.57261 11.733 9.99467 11.2656C10.2448 10.9695 10.4323 10.6423 10.5262 10.2684C10.6199 9.89438 10.6824 9.44254 10.6824 8.91276V8.25833C10.2292 8.14925 9.74457 8.05573 9.24437 7.99341C8.74412 7.93109 8.25953 7.89995 7.77495 7.89995C6.72764 7.89995 5.96167 8.10249 5.44585 8.52319C4.92998 8.94389 4.67988 9.536 4.67988 10.3151C4.67988 11.0475 4.86747 11.5928 5.25828 11.9667C5.63343 12.3563 6.18053 12.5433 6.8996 12.5433ZM19.4518 14.2261C19.1705 14.2261 18.9829 14.1793 18.8578 14.0703C18.7328 13.9768 18.6233 13.7586 18.5296 13.4626L14.8561 1.41794C14.7624 1.1063 14.7154 0.903739 14.7154 0.794669C14.7154 0.545362 14.8405 0.405125 15.0906 0.405125H16.6225C16.9195 0.405125 17.1227 0.451869 17.2322 0.56094C17.3572 0.654432 17.451 0.872577 17.5448 1.16863L20.1709 11.4837L22.6094 1.16863C22.6876 0.856993 22.7814 0.654432 22.9064 0.56094C23.0315 0.467452 23.2504 0.405125 23.5317 0.405125H24.7822C25.0793 0.405125 25.2824 0.451869 25.4076 0.56094C25.5326 0.654432 25.642 0.872577 25.7045 1.16863L28.1743 11.6084L30.8786 1.16863C30.9724 0.856993 31.0818 0.654432 31.1913 0.56094C31.3163 0.467452 31.5196 0.405125 31.8009 0.405125H33.2546C33.5047 0.405125 33.6455 0.529778 33.6455 0.794669C33.6455 0.872577 33.6298 0.950485 33.6142 1.04398C33.5985 1.13746 33.5673 1.26212 33.5047 1.43352L29.7375 13.4782C29.6437 13.7898 29.5343 13.9924 29.4093 14.0859C29.2842 14.1793 29.081 14.2417 28.8152 14.2417H27.4709C27.1739 14.2417 26.9707 14.195 26.8456 14.0859C26.7206 13.9768 26.6111 13.7743 26.5486 13.4626L24.1257 3.41239L21.7185 13.447C21.6403 13.7586 21.5465 13.9612 21.4215 14.0703C21.2964 14.1793 21.0775 14.2261 20.7962 14.2261H19.4518ZM39.5386 14.6468C38.7258 14.6468 37.9129 14.5533 37.1313 14.3664C36.3497 14.1793 35.7401 13.9768 35.3337 13.7431C35.0835 13.6028 34.9116 13.447 34.8491 13.3068C34.7866 13.1665 34.7553 13.0107 34.7553 12.8705V12.0758C34.7553 11.7486 34.8803 11.5928 35.1148 11.5928C35.2086 11.5928 35.3024 11.6084 35.3962 11.6396C35.49 11.6707 35.6306 11.733 35.787 11.7953C36.3185 12.0291 36.8968 12.216 37.5064 12.3407C38.1318 12.4654 38.7414 12.5277 39.3666 12.5277C40.3514 12.5277 41.1174 12.3563 41.6489 12.0135C42.1804 11.6707 42.4617 11.1721 42.4617 10.5332C42.4617 10.097 42.321 9.73859 42.0396 9.44254C41.7583 9.14649 41.2268 8.88157 40.4608 8.63227L38.1943 7.93109C37.0532 7.57271 36.209 7.04293 35.6932 6.34174C35.1773 5.65617 34.9116 4.89266 34.9116 4.08241C34.9116 3.42798 35.0523 2.85146 35.3337 2.35284C35.615 1.85422 35.9902 1.41794 36.4591 1.07514C36.9281 0.716761 37.4596 0.451869 38.0848 0.264889C38.7101 0.0779087 39.3666 0 40.0545 0C40.3983 0 40.7579 0.0155817 41.1018 0.0623266C41.4613 0.109072 41.7895 0.171399 42.1178 0.233726C42.4305 0.311634 42.7275 0.389543 43.0088 0.483033C43.2902 0.576524 43.5091 0.670016 43.6654 0.763502C43.8842 0.888156 44.0405 1.01281 44.1343 1.15305C44.2281 1.2777 44.275 1.4491 44.275 1.66724V2.39958C44.275 2.7268 44.1499 2.8982 43.9155 2.8982C43.7904 2.8982 43.5872 2.83587 43.3215 2.71122C42.4305 2.3061 41.43 2.10353 40.3202 2.10353C39.4292 2.10353 38.7258 2.24377 38.2412 2.53982C37.7566 2.83587 37.5064 3.28774 37.5064 3.92659C37.5064 4.36288 37.6628 4.73684 37.9754 5.03288C38.288 5.32893 38.8664 5.62499 39.6949 5.8899L41.9146 6.59109C43.0401 6.94947 43.8529 7.44806 44.3375 8.08692C44.8221 8.72578 45.0566 9.45811 45.0566 10.2684C45.0566 10.9384 44.9159 11.546 44.6501 12.0758C44.3688 12.6056 43.9936 13.0731 43.5091 13.447C43.0245 13.8366 42.4461 14.117 41.7739 14.3196C41.0705 14.5378 40.3358 14.6468 39.5386 14.6468Z" fill="#A8A8A8"/>
<path d="M42.492 22.2185C37.3492 26.0048 29.8772 28.0149 23.4526 28.0149C14.4487 28.0149 6.33584 24.696 0.208217 19.1801C-0.276366 18.7437 0.161322 18.1516 0.739698 18.4944C7.36753 22.3276 15.5429 24.6492 23.9997 24.6492C29.7052 24.6492 35.9736 23.465 41.7417 21.0343C42.6014 20.6447 43.3361 21.5952 42.492 22.2185ZM44.6335 19.7877C43.977 18.9463 40.2879 19.3826 38.6154 19.5852C38.1151 19.6475 38.037 19.2112 38.4902 18.884C41.429 16.8272 46.2592 17.4193 46.822 18.1049C47.3847 18.8061 46.6657 23.6208 43.9145 25.9269C43.4924 26.2853 43.086 26.0983 43.2736 25.6309C43.8989 24.0883 45.2901 20.6136 44.6335 19.7877Z" fill="#A8A8A8"/>
</svg>
