<svg width="44" height="43" viewBox="0 0 44 43" fill="none" xmlns="http://www.w3.org/2000/svg">
<path d="M22.1001 0C10.2001 0 0.600098 9.6 0.600098 21.5C0.600098 33.4 10.2001 43 22.1001 43C34.0001 43 43.6001 33.4 43.6001 21.5C43.6001 9.6 33.9001 0 22.1001 0ZM42.2001 21.5C42.2001 32.6 33.2001 41.6 22.1001 41.6C11.0001 41.6 2.0001 32.6 2.0001 21.5C2.0001 10.4 11.0001 1.4 22.1001 1.4C33.2001 1.4 42.2001 10.4 42.2001 21.5Z" fill="#A8A8A8"/>
<path d="M22.1003 8.80078V9.50078C28.7003 9.50078 34.2003 14.9008 34.2003 21.6008H34.9003C34.8003 14.5008 29.1003 8.80078 22.1003 8.80078ZM22.1003 33.6008C15.5003 33.6008 10.0003 28.2008 10.0003 21.5008H9.30029C9.30029 28.5008 15.0003 34.2008 22.0003 34.2008" fill="#A8A8A8"/>
<path d="M32.3976 12.3711C32.6976 12.6711 33.0976 13.1711 33.2976 13.4711L37.6976 10.7711C37.4976 10.4711 37.0976 10.0711 36.8976 9.77109L34.0976 11.5711L33.8976 11.7711L33.9976 11.5711L35.1976 9.17109L34.3976 8.27109L31.9976 9.47109L31.7976 9.57109L31.9976 9.37109L33.7976 6.67109C33.4976 6.37109 33.1976 6.17109 32.7976 5.87109L29.9976 10.1711C30.3976 10.4711 30.7976 10.8711 31.0976 11.0711L33.6976 9.77109L33.8976 9.67109L33.7976 9.87109L32.3976 12.3711Z" fill="#A8A8A8"/>
<path d="M22.4974 6.97187L23.6974 4.27187L23.7974 4.07188V4.27187L23.8974 7.77187C24.2974 7.77187 24.6974 7.87187 25.1974 7.97187L24.9974 2.77187C24.3974 2.67187 23.7974 2.67188 23.1974 2.67188L21.9974 5.57188L20.7974 2.67188C20.1974 2.67188 19.5974 2.77187 18.9974 2.77187L18.7974 7.97187C19.1974 7.87187 19.6974 7.87187 20.0974 7.77187L20.1974 4.27187L21.3974 6.87188H22.4974V6.97187Z" fill="#A8A8A8"/>
<path d="M12.8975 11.0711C13.5975 10.3711 13.9975 9.47109 13.2975 8.77109C12.8975 8.37109 12.2975 8.27109 11.7975 8.47109H11.6975C11.7975 8.27109 11.7975 7.57109 11.2975 7.17109C10.9975 6.97109 10.6975 6.87109 10.2975 6.87109C9.69746 6.97109 9.19746 7.37109 7.79746 8.87109C7.39746 9.37109 6.79746 10.0711 6.39746 10.4711L10.0975 13.9711C11.3975 12.6711 11.8975 12.1711 12.8975 11.0711ZM7.99746 10.2711C8.69746 9.37109 9.49746 8.57109 9.89746 8.17109C9.99746 8.07109 10.0975 7.97109 10.2975 7.97109C10.4975 7.87109 10.7975 8.07109 10.8975 8.37109C10.9975 8.57109 10.7975 8.87109 10.5975 9.07109C10.1975 9.47109 8.79746 11.0711 8.79746 11.0711L7.99746 10.2711ZM9.49746 11.6711C9.49746 11.6711 10.8975 10.1711 11.3975 9.67109C11.5975 9.47109 11.6975 9.37109 11.7975 9.27109C11.9975 9.17109 12.0975 9.17109 12.2975 9.27109C12.4975 9.37109 12.4975 9.57109 12.4975 9.77109C12.4975 9.97109 12.2975 10.1711 12.0975 10.3711C11.8975 10.5711 10.1975 12.3711 10.1975 12.3711L9.49746 11.6711Z" fill="#A8A8A8"/>
<path d="M22.1003 8.80078V21.5008H9.30029C9.30029 14.5008 15.0003 8.80078 22.1003 8.80078Z" fill="#A8A8A8"/>
<path d="M34.8001 21.5C34.8001 28.5 29.1001 34.2 22.1001 34.2V21.5H34.8001Z" fill="#A8A8A8"/>
</svg>
