<svg width="80" height="29" viewBox="0 0 80 29" fill="none" xmlns="http://www.w3.org/2000/svg">
<path d="M0 0.00971701V22.27L2.87401 22.2797V11.6791H9.79111V8.87109H2.86427V2.79833H11.8857V0H0V0.00971701ZM17.0492 4.53756C18.0916 4.53756 18.9295 3.70195 18.9295 2.6623C18.9295 1.62264 18.0916 0.78703 17.0492 0.78703C16.0068 0.78703 15.1689 1.62264 15.1689 2.6623C15.1689 3.70195 16.0068 4.53756 17.0492 4.53756ZM15.5976 7.3359V22.2895H18.4716V7.3359H15.5976Z" fill="#A8A8A8"/>
<path fill-rule="evenodd" clip-rule="evenodd" d="M29.1203 6.89844C25.311 6.89844 22.6514 10.1146 22.6514 13.9331C22.6514 17.7517 25.311 20.9678 29.1203 20.9678C30.8739 20.9678 32.3061 20.3071 33.3583 19.1994V21.1913C33.3875 23.669 31.4 25.7094 28.906 25.7386C28.8865 25.7386 28.8768 25.7386 28.8573 25.7386C27.9415 25.7386 27.0257 25.3888 26.3145 24.8738L24.8726 27.3612C28.2922 29.5668 32.8419 28.5855 35.0534 25.1847C35.8231 23.9896 36.2323 22.6002 36.2323 21.1816V7.34539H33.3583V8.68625C32.3061 7.57858 30.8642 6.91787 29.1203 6.91787V6.89844ZM25.5156 13.9331C25.5156 11.5623 27.3277 9.69676 29.4321 9.69676C31.5364 9.69676 33.3388 11.572 33.3388 13.9331C33.3388 16.3039 31.5267 18.1598 29.4321 18.1598C27.3375 18.1598 25.5156 16.3136 25.5156 13.9331Z" fill="#A8A8A8"/>
<path d="M46.5791 9.69578C44.8644 9.72492 43.4907 11.1241 43.5005 12.8342V22.2882H40.6265V7.33469H43.5005V8.7047C44.3773 7.54845 45.751 6.87801 47.2026 6.90716C49.2193 6.90716 50.7683 7.89824 51.6549 9.42372C52.6583 7.86909 54.373 6.9266 56.224 6.90716C59.4877 6.90716 61.5336 9.53059 61.5336 12.7953V22.2882H58.6791V12.8245C58.6889 11.1144 57.3152 9.7152 55.6005 9.68606C53.8859 9.7152 52.5122 11.1144 52.5219 12.8245V22.2785H49.6479V12.8245C49.6577 11.1241 48.2937 9.72492 46.5791 9.68606V9.69578Z" fill="#A8A8A8"/>
<path fill-rule="evenodd" clip-rule="evenodd" d="M76.8387 9.03646C75.5137 7.66644 73.6919 6.88913 71.7824 6.90856C67.5055 6.90856 64.4756 10.5036 64.4756 14.8177C64.4756 19.1318 67.5055 22.7269 71.7824 22.7269C73.6919 22.7366 75.5137 21.969 76.8387 20.599V22.2994H79.703V7.33608H76.8289V9.03646H76.8387ZM67.3399 14.808C67.3399 11.9611 69.5319 9.69717 72.0941 9.69717C74.6369 9.69717 76.8484 11.9611 76.8484 14.808C76.8484 17.6549 74.6564 19.9091 72.0941 19.9091C69.5514 19.9091 67.3399 17.6549 67.3399 14.808Z" fill="#A8A8A8"/>
</svg>
