<svg width="110" height="36" viewBox="0 0 110 36" fill="none" xmlns="http://www.w3.org/2000/svg">
<path d="M14.2227 12.6142V16.3956H23.3094C22.8579 21.6727 18.4274 23.9302 14.2227 23.9302C8.86096 23.9302 4.1765 19.7537 4.1765 13.884C4.1765 8.18368 8.6352 3.78143 14.2227 3.78143C18.5403 3.78143 21.08 6.51873 21.08 6.51873L23.7327 3.78143C23.7327 3.78143 20.3181 0 14.0816 0C6.12365 0 0 6.63161 0 13.7994C0 20.8261 5.78502 27.6834 14.2791 27.6834C21.7573 27.6834 27.2319 22.6039 27.2319 15.0975C27.2319 13.5172 27.0062 12.5859 27.0062 12.5859L14.2227 12.6142ZM37.5603 9.90508C32.2832 9.90508 28.53 13.9687 28.53 18.7378C28.53 23.5634 32.1986 27.7116 37.6167 27.7116C42.5269 27.7116 46.5623 23.9867 46.5623 18.8507C46.5906 12.9246 41.9061 9.90508 37.5603 9.90508ZM37.6167 13.3761C40.2129 13.3761 42.668 15.4361 42.668 18.7943C42.668 22.0677 40.2129 24.1842 37.6167 24.1842C34.7383 24.1842 32.4808 21.8984 32.4808 18.766C32.4808 15.6901 34.7101 13.3761 37.6167 13.3761ZM57.2293 9.90508C51.9523 9.90508 48.1991 13.9687 48.1991 18.7378C48.1991 23.5634 51.8676 27.7116 57.2858 27.7116C62.196 27.7116 66.2314 23.9867 66.2314 18.8507C66.2314 12.9246 61.5469 9.90508 57.2293 9.90508ZM57.2858 13.3761C59.882 13.3761 62.3371 15.4361 62.3371 18.7943C62.3371 22.0677 59.882 24.1842 57.2858 24.1842C54.4074 24.1842 52.1498 21.8984 52.1498 18.766C52.1216 15.6901 54.351 13.3761 57.2858 13.3761ZM76.5033 9.90508C71.6778 9.90508 67.8681 14.0816 67.8681 18.7943C67.8681 24.156 72.2704 27.7116 76.4187 27.7116C78.9867 27.7116 80.3412 26.6957 81.3571 25.5387V27.2884C81.3571 30.3643 79.4664 32.1986 76.6444 32.1986C73.9071 32.1986 72.5244 30.1668 72.0446 29.038L68.6019 30.4772C69.8153 33.0452 72.2986 35.726 76.6727 35.726C81.47 35.726 85.1385 32.7347 85.1385 26.4418V10.4413H81.3571V11.9369C80.1719 10.6952 78.5916 9.90508 76.5033 9.90508ZM76.842 13.4043C79.2124 13.4043 81.6393 15.4079 81.6393 18.8225C81.6393 22.2935 79.2124 24.2124 76.7855 24.2124C74.2176 24.2124 71.8189 22.1524 71.8189 18.8507C71.8189 15.4361 74.3022 13.4043 76.842 13.4043ZM101.873 9.87686C97.3294 9.87686 93.4915 13.4607 93.4915 18.766C93.4915 24.3817 97.7527 27.6834 102.324 27.6834C106.134 27.6834 108.448 25.6234 109.859 23.7891L106.755 21.7291C105.936 22.9708 104.61 24.1842 102.352 24.1842C99.8127 24.1842 98.6557 22.8014 97.9502 21.4751L110 16.5367L109.379 15.0975C108.166 12.2473 105.457 9.87686 101.873 9.87686ZM102.014 13.2914C103.651 13.2914 104.836 14.1662 105.344 15.1821L97.3012 18.5121C96.9625 15.9441 99.4177 13.2914 102.014 13.2914ZM87.7347 27.1755H91.6855V0.931248H87.7347V27.1755Z" fill="#A8A8A8"/>
</svg>
