<svg width="109" height="22" viewBox="0 0 109 22" fill="none" xmlns="http://www.w3.org/2000/svg">
<path d="M3.57181 14.4676C3.57181 15.7288 3.84885 16.6973 4.21104 17.2826C4.60276 17.9631 5.33055 18.3805 6.11624 18.3748C7.04727 18.3748 7.89995 18.1434 9.54174 15.8751C10.8565 14.057 12.4063 11.5051 13.4498 9.90589L15.2153 7.19521C16.4415 5.31248 17.8619 3.21993 19.4901 1.80107C20.8196 0.643078 22.2525 0 23.6956 0C26.1185 0 28.4257 1.40184 30.1923 4.03199C32.1248 6.9128 33.0638 10.541 33.0638 14.285C33.0638 16.5113 32.6244 18.1468 31.8773 19.4386C31.1552 20.6885 29.7484 21.9361 27.3811 21.9361V18.3737C29.4078 18.3737 29.9142 16.5125 29.9142 14.3836C29.9142 11.3497 29.2057 7.9812 27.6457 5.57561C26.5386 3.86868 25.1035 2.82637 23.5253 2.82637C21.8177 2.82637 20.4438 4.11252 18.8997 6.40583C18.0788 7.62393 17.2363 9.1097 16.2905 10.7849L15.2494 12.6279C13.1568 16.3344 12.6266 17.1782 11.5809 18.571C9.74724 21.0106 8.18153 21.935 6.11851 21.935C3.67287 21.935 2.12645 20.8768 1.16931 19.2833C0.388159 17.9846 0.00439453 16.28 0.00439453 14.3383L3.57181 14.4676Z" fill="#A8A8A8"/>
<path d="M2.81787 4.28574C4.45511 1.76446 6.81788 0.00195312 9.52807 0.00195312C11.0983 0.00195312 12.6572 0.465831 14.2865 1.79509C16.0691 3.24797 17.9675 5.63994 20.3382 9.58347L21.1875 10.9989C23.2391 14.4128 24.4052 16.1685 25.0887 16.9964C25.9675 18.0603 26.5817 18.3767 27.3811 18.3767C29.4077 18.3767 29.9141 16.5156 29.9141 14.3867L33.0649 14.288C33.0649 16.5144 32.6255 18.1499 31.8784 19.4417C31.1563 20.6916 29.7495 21.9392 27.3822 21.9392C25.9096 21.9392 24.6062 21.6205 23.1653 20.2617C22.0572 19.2194 20.7617 17.3662 19.7648 15.7012L16.8003 10.7528C15.3129 8.27009 13.9482 6.41799 13.1579 5.57983C12.3087 4.67816 11.2164 3.58935 9.47244 3.58935C8.06114 3.58935 6.86329 4.57835 5.86074 6.09135L2.81787 4.28574Z" fill="#A8A8A8"/>
<path d="M9.46922 3.58822C8.05792 3.58822 6.86007 4.57722 5.85752 6.09021C4.43941 8.227 3.57196 11.4106 3.57196 14.4684C3.57196 15.7296 3.849 16.6982 4.21119 17.2834L1.16605 19.2864C0.383765 17.9877 0 16.2831 0 14.3413C0 10.8095 0.970765 7.12912 2.81579 4.28574C4.45303 1.7656 6.81579 0.00195312 9.52599 0.00195312L9.46922 3.58822Z" fill="#A8A8A8"/>
<path d="M40.0063 0.695312H44.1381L51.1616 13.389L58.1863 0.695312H62.2283V21.5528H58.8585V5.5666L52.6978 16.6362H49.5357L43.3762 5.5666V21.5517H40.0063V0.695312ZM72.7875 8.47122C70.3703 8.47122 68.9147 10.2882 68.5673 12.5384H76.7694C76.6002 10.2213 75.2616 8.47122 72.7875 8.47122ZM65.2258 13.82C65.2258 9.08595 68.2891 5.64032 72.8466 5.64032C77.3291 5.64032 80.0064 9.04285 80.0064 14.0729V14.9973H68.5673C68.9726 17.4448 70.5985 19.0951 73.2201 19.0951C75.3115 19.0951 76.6184 18.4576 77.8582 17.2917L79.6488 19.4818C77.9615 21.0311 75.8168 21.9248 73.1009 21.9248C68.1665 21.9248 65.2258 18.3318 65.2258 13.82ZM84.0916 8.77064H80.9897V6.0146H84.0916V1.45634H87.3433V6.0146H92.0564V8.77064H87.3433V15.7583C87.3433 18.1435 88.1063 18.9918 89.9831 18.9918C90.6791 18.993 91.3729 18.9283 92.0564 18.7979V21.5245C91.1787 21.7751 90.2693 21.8999 89.3564 21.8953C85.8457 21.8953 84.0916 19.9786 84.0916 16.1451V8.77064ZM105.748 11.4507C105.095 9.80388 103.639 8.59031 101.497 8.59031C98.7143 8.59031 96.934 10.5626 96.934 13.7746C96.934 16.9061 98.5736 18.9737 101.364 18.9737C103.558 18.9737 105.124 17.6989 105.748 16.1133V11.4507ZM109 21.5517H105.807V19.3775C104.915 20.6579 103.291 21.9248 100.662 21.9248C96.4322 21.9248 93.6062 18.3885 93.6062 13.7758C93.6062 9.11997 96.5003 5.64145 100.841 5.64145C102.987 5.64145 104.67 6.49776 105.807 8.01075V6.0146H108.999L109 21.5517Z" fill="#A8A8A8"/>
</svg>
