<svg width="142" height="31" viewBox="0 0 142 31" fill="none" xmlns="http://www.w3.org/2000/svg">
<mask id="mask0_1103_10926" style="mask-type:luminance" maskUnits="userSpaceOnUse" x="0" y="0" width="142" height="31">
<path d="M142 0H0V30.5175H142V0Z" fill="white"/>
</mask>
<g mask="url(#mask0_1103_10926)">
<path d="M50.1228 17.578L49.2765 19.991H49.206C49.0649 19.4469 48.8063 18.6188 48.3831 17.6252L43.8457 6.15163H39.4023V24.4385H42.3411V13.1541C42.3411 12.4444 42.3411 11.64 42.3176 10.6464C42.294 10.1497 42.247 9.77116 42.2235 9.48728H42.294C42.4351 10.197 42.5997 10.7174 42.7173 11.0486L48.1716 24.3912H50.2404L55.6477 10.9303C55.7653 10.6228 55.8828 10.0077 56.0004 9.48728H56.0709C56.0004 10.8357 55.9534 12.0422 55.9298 12.7756V24.3675H59.0566V6.10431H54.7778L50.1228 17.578ZM62.0189 11.2616H65.0752V24.3675H62.0189V11.2616ZM63.5705 5.7258C63.0534 5.7258 62.6301 5.91506 62.2775 6.24625C61.9249 6.57745 61.7368 7.00328 61.7368 7.52372C61.7368 8.02052 61.9249 8.44635 62.2775 8.77757C62.6301 9.10872 63.0534 9.27436 63.5705 9.27436C64.0878 9.27436 64.5345 9.08509 64.8636 8.77757C65.2162 8.44635 65.4043 8.02052 65.4043 7.52372C65.4043 7.02693 65.2162 6.60111 64.8636 6.24625C64.558 5.91506 64.1113 5.7258 63.5705 5.7258ZM75.9136 11.1432C75.3491 11.0249 74.7613 10.954 74.1968 10.954C72.8102 10.954 71.5407 11.2616 70.4825 11.8766C69.4246 12.4917 68.5782 13.3433 68.0374 14.4079C67.4732 15.4961 67.1911 16.75 67.1911 18.193C67.1911 19.4469 67.4732 20.5588 68.0139 21.576C68.5547 22.5696 69.307 23.3739 70.3179 23.918C71.2816 24.4622 72.4105 24.746 73.6799 24.746C75.1376 24.746 76.3836 24.4385 77.3712 23.8707L77.3947 23.8471V21.0082L77.2768 21.1028C76.8302 21.434 76.3126 21.7179 75.7957 21.8835C75.2547 22.0728 74.7613 22.1674 74.3381 22.1674C73.1155 22.1674 72.152 21.8125 71.4697 21.0319C70.7646 20.2749 70.4119 19.2339 70.4119 17.9328C70.4119 16.5844 70.7646 15.5198 71.4931 14.7391C72.2223 13.9585 73.1858 13.5563 74.3615 13.5563C75.3491 13.5563 76.3602 13.8875 77.2768 14.5499L77.3947 14.6445V11.64L77.3712 11.6164C76.9715 11.4508 76.5242 11.2616 75.9136 11.1432ZM85.9991 11.0486C85.2465 11.0486 84.5415 11.2852 83.9302 11.782C83.4126 12.2078 83.0605 12.8229 82.7544 13.5563H82.731V11.2616H79.6752V24.3675H82.731V17.6726C82.731 16.537 82.966 15.5908 83.4836 14.9047C84.0005 14.195 84.6587 13.8401 85.4581 13.8401C85.7407 13.8401 86.0226 13.9111 86.3754 13.9585C86.7042 14.0531 86.9392 14.1477 87.1039 14.266L87.2218 14.3606V11.2852L87.1508 11.2616C86.9392 11.1196 86.516 11.0486 85.9991 11.0486ZM94.3218 10.9777C92.1818 10.9777 90.4658 11.6164 89.2666 12.8702C88.0447 14.124 87.4568 15.851 87.4568 18.0274C87.4568 20.062 88.0681 21.7179 89.2431 22.9244C90.4189 24.1073 92.0178 24.7223 94.0158 24.7223C96.1081 24.7223 97.7773 24.0836 98.9765 22.8061C100.199 21.5286 100.787 19.8253 100.787 17.7199C100.787 15.6381 100.223 13.9821 99.0702 12.7756C97.9655 11.5691 96.3431 10.9777 94.3218 10.9777ZM96.7663 21.0556C96.2026 21.7889 95.3087 22.1438 94.2039 22.1438C93.0991 22.1438 92.206 21.7889 91.5712 21.0082C90.9358 20.2749 90.6305 19.2103 90.6305 17.8619C90.6305 16.4661 90.9599 15.4015 91.5712 14.6445C92.206 13.8875 93.0757 13.5089 94.1805 13.5089C95.2618 13.5089 96.1081 13.8638 96.7194 14.5972C97.3307 15.3305 97.6602 16.3951 97.6602 17.7909C97.6126 19.2103 97.3542 20.3221 96.7663 21.0556ZM107.604 16.7026C106.641 16.3005 106.03 15.9929 105.747 15.7327C105.512 15.4961 105.395 15.165 105.395 14.7391C105.395 14.3843 105.536 14.0294 105.888 13.7928C106.241 13.5563 106.641 13.438 107.229 13.438C107.746 13.438 108.287 13.5326 108.804 13.6746C109.321 13.8165 109.791 14.0294 110.168 14.3133L110.285 14.4079V11.5217L110.214 11.4981C109.862 11.3562 109.392 11.2142 108.827 11.0959C108.263 11.0013 107.746 10.954 107.323 10.954C105.865 10.954 104.666 11.3088 103.726 12.0895C102.785 12.8229 102.338 13.8165 102.338 14.9757C102.338 15.5908 102.433 16.1348 102.644 16.5844C102.856 17.0338 103.161 17.4597 103.584 17.8145C104.008 18.1457 104.619 18.5242 105.465 18.8791C106.17 19.1866 106.711 19.4232 107.041 19.6124C107.369 19.8017 107.581 20.0146 107.746 20.1802C107.864 20.3695 107.934 20.606 107.934 20.9136C107.934 21.7889 107.276 22.2147 105.935 22.2147C105.418 22.2147 104.877 22.1201 104.243 21.9072C103.608 21.6943 103.02 21.3867 102.527 21.0319L102.409 20.9372V23.9417L102.48 23.9654C102.926 24.1783 103.467 24.3202 104.125 24.4858C104.784 24.6041 105.371 24.6987 105.888 24.6987C107.464 24.6987 108.757 24.3439 109.673 23.5632C110.614 22.8061 111.108 21.8362 111.108 20.5824C111.108 19.7071 110.873 18.9264 110.355 18.335C109.673 17.7672 108.827 17.1758 107.604 16.7026ZM119.172 10.9777C117.032 10.9777 115.316 11.6164 114.117 12.8702C112.918 14.124 112.307 15.851 112.307 18.0274C112.307 20.062 112.918 21.7179 114.093 22.9244C115.269 24.1073 116.868 24.7223 118.866 24.7223C120.958 24.7223 122.627 24.0836 123.827 22.8061C125.049 21.5286 125.637 19.8253 125.637 17.7199C125.637 15.6381 125.073 13.9821 123.92 12.7756C122.815 11.5691 121.193 10.9777 119.172 10.9777ZM121.593 21.0556C121.029 21.7889 120.135 22.1438 119.03 22.1438C117.902 22.1438 117.032 21.7889 116.397 21.0082C115.762 20.2749 115.457 19.2103 115.457 17.8619C115.457 16.4661 115.786 15.4015 116.397 14.6445C117.032 13.8875 117.902 13.5089 119.007 13.5089C120.065 13.5089 120.935 13.8638 121.546 14.5972C122.157 15.3305 122.487 16.3951 122.487 17.7909C122.487 19.2103 122.181 20.3221 121.593 21.0556ZM141.976 13.7928V11.2616H138.896V7.38178L138.803 7.40541L135.887 8.28077L135.816 8.3044V11.2616H131.208V9.60552C131.208 8.84854 131.397 8.25707 131.726 7.87858C132.055 7.50009 132.549 7.31081 133.16 7.31081C133.583 7.31081 134.03 7.40541 134.523 7.61833L134.641 7.6893V5.01609L134.57 4.99243C134.147 4.85049 133.583 4.75586 132.854 4.75586C131.938 4.75586 131.138 4.96877 130.41 5.32363C129.68 5.7258 129.139 6.26991 128.74 7.00328C128.341 7.713 128.129 8.51732 128.129 9.43994V11.2616H125.989V13.7692H128.129V24.3675H131.208V13.7928H135.816V20.5351C135.816 23.3029 137.11 24.6987 139.696 24.6987C140.119 24.6987 140.565 24.6277 140.989 24.5568C141.435 24.4622 141.765 24.3439 141.953 24.2493L141.976 24.2255V21.6943L141.858 21.7889C141.67 21.9072 141.506 22.0018 141.224 22.0728C140.989 22.1438 140.777 22.1674 140.612 22.1674C140.001 22.1674 139.578 22.0254 139.273 21.6706C138.991 21.3394 138.849 20.7953 138.849 19.991V13.7928H141.976Z" fill="#A8A8A8"/>
<path d="M0 0H14.4116V14.5017H0V0Z" fill="#A8A8A8"/>
<path d="M15.9155 0H30.3271V14.5017H15.9155V0Z" fill="#A8A8A8"/>
<path d="M0 16.0156H14.4116V30.5173H0V16.0156Z" fill="#A8A8A8"/>
<path d="M15.9155 16.0156H30.3271V30.5173H15.9155V16.0156Z" fill="#A8A8A8"/>
</g>
</svg>
