<svg width="119" height="32" viewBox="0 0 119 32" fill="none" xmlns="http://www.w3.org/2000/svg">
<g clip-path="url(#clip0_1103_10898)">
<mask id="mask0_1103_10898" style="mask-type:luminance" maskUnits="userSpaceOnUse" x="0" y="0" width="119" height="32">
<path d="M119 0H0V31.5699H119V0Z" fill="white"/>
</mask>
<g mask="url(#mask0_1103_10898)">
<path d="M16.3628 29.5349C14.5728 29.8435 12.7511 29.9361 10.8667 30.1825L5.11921 13.6577V30.8917C3.32909 31.0766 1.69598 31.3232 0 31.5699V0H4.77395L11.3064 17.9125V0H16.3628V29.5349ZM26.256 11.5612C28.2033 11.5612 31.187 11.4687 32.9771 11.4687V16.4014C30.7471 16.4014 28.1405 16.4014 26.256 16.4939V23.8316C29.2084 23.6466 32.1606 23.3998 35.144 23.3073V28.0548L21.2308 29.1341V0H35.144V4.93279H26.256V11.5612ZM53.831 4.93291H48.6175V27.6237C46.9216 27.6237 45.2256 27.6237 43.5927 27.6852V4.93291H38.3792V0H53.8312L53.831 4.93291ZM61.9967 11.2222H68.8748V16.1549H61.9967V27.3463H57.0655V0H71.1044V4.93279H61.9967V11.2222ZM79.2706 23.03C82.1286 23.0914 85.0178 23.3076 87.813 23.4615V28.3327C83.3217 28.055 78.8305 27.7779 74.2451 27.6852V0H79.2706V23.03ZM92.0529 28.6719C93.6549 28.7645 95.3503 28.857 96.9837 29.0417V0H92.0529V28.6719ZM119 0L112.625 15.0142L119 31.5699C117.115 31.3232 115.231 30.9841 113.347 30.6757L109.735 21.5502L106.061 29.9361C104.239 29.6275 102.48 29.5349 100.659 29.2883L107.128 14.8291L101.287 0H106.689L109.986 8.29327L113.504 0H119Z" fill="#A8A8A8"/>
</g>
</g>
<defs>
<clipPath id="clip0_1103_10898">
<rect width="119" height="32" fill="white"/>
</clipPath>
</defs>
</svg>
